<svg width="18" height="16" viewBox="0 0 18 16" fill="none" xmlns="http://www.w3.org/2000/svg">
<path fill-rule="evenodd" clip-rule="evenodd" d="M13.3677 1.76098C12.0191 1.32839 10.3891 1.66702 9.56411 2.91834C9.45117 3.08965 9.26133 3.19461 9.05619 3.19916C8.85105 3.20372 8.65674 3.10729 8.5363 2.94117C7.63734 1.7012 6.03295 1.33362 4.70925 1.76078L4.7088 1.76093C2.21837 2.56251 1.20119 5.593 2.02993 8.18087C2.69636 10.2549 4.15395 11.8376 5.63547 12.9092C6.37382 13.4432 7.10639 13.8415 7.72715 14.1042C8.36846 14.3756 8.83031 14.4768 9.04231 14.4768C9.25264 14.4768 9.71609 14.3736 10.3621 14.0977C10.9867 13.831 11.7238 13.4277 12.4651 12.8902C13.9537 11.8109 15.4081 10.2289 16.0511 8.18431L16.052 8.18133C16.8798 5.59449 15.8582 2.56298 13.3677 1.76098ZM9.02488 1.60547C10.2987 0.310631 12.2359 0.0850463 13.7499 0.570873L13.7505 0.571058C17.1193 1.65566 18.2011 5.56459 17.243 8.56082C16.4942 10.9405 14.8252 12.723 13.1989 13.9022C12.3826 14.494 11.5642 14.9436 10.8531 15.2473C10.1633 15.5419 9.51073 15.7268 9.04231 15.7268C8.57598 15.7268 7.92751 15.5463 7.23997 15.2554C6.53187 14.9557 5.71705 14.5109 4.9029 13.922C3.27948 12.7478 1.6117 10.9655 0.839769 8.563L0.839597 8.56246C-0.119811 5.56711 0.954643 1.65622 4.32565 0.571095M9.02488 1.60547C7.7341 0.365082 5.86198 0.0754943 4.32582 0.571042L9.02488 1.60547Z" fill="#070721"/>
</svg>
