<svg width="20" height="20" viewBox="0 0 20 20" fill="none" xmlns="http://www.w3.org/2000/svg">
<path fill-rule="evenodd" clip-rule="evenodd" d="M2.37527 15.7678C2.37527 13.8428 5.07277 12.0919 8.26861 12.0919C11.4469 12.0919 14.1619 13.8261 14.1619 15.7503C14.1619 17.6744 11.4644 18.1736 8.26861 18.1736C5.09027 18.1736 2.37527 17.6928 2.37527 15.7678Z" stroke="white" stroke-width="1.5" stroke-linecap="round" stroke-linejoin="round"/>
<path fill-rule="evenodd" clip-rule="evenodd" d="M12.0461 5.56913C12.0461 3.48246 10.3544 1.79163 8.26858 1.79163C6.18275 1.79163 4.49105 3.48246 4.49105 5.56913C4.48358 7.64746 6.16358 9.33913 8.24191 9.34663H8.26858C10.3544 9.34663 12.0461 7.65496 12.0461 5.56913Z" stroke="white" stroke-width="1.5" stroke-linecap="round" stroke-linejoin="round"/>
<path d="M17.2024 9.58337H13.631" stroke="white" stroke-width="1.5" stroke-linecap="round" stroke-linejoin="round"/>
<path d="M15.8333 8.33337L17.5 9.58337L15.8333 10.8334" stroke="white" stroke-width="1.5" stroke-linecap="round" stroke-linejoin="round"/>
</svg>
