<svg width="20" height="20" viewBox="0 0 20 20" fill="none" xmlns="http://www.w3.org/2000/svg">
<path fill-rule="evenodd" clip-rule="evenodd" d="M14.8946 2.75188C15.1758 2.99109 15.4396 3.21563 15.6811 3.41C16.1511 3.84592 16.5668 4.21189 16.9339 4.53519C19.1483 6.48506 19.6001 6.88287 19.6001 11.713C19.6001 20 17.6411 20 10.0141 20C2.3871 20 0.428097 20 0.428097 11.713C0.428097 6.88226 0.879244 6.48496 3.09416 4.53445C3.46108 4.21133 3.8764 3.84559 4.3461 3.41C4.57214 3.22795 4.81826 3.02046 5.08002 2.79978C6.50776 1.5961 8.40098 0 10.0421 0C11.6607 0 13.4922 1.55854 14.8946 2.75188ZM12.9214 13.3855C13.3356 13.3855 13.6714 13.7213 13.6714 14.1355C13.6714 14.5497 13.3356 14.8855 12.9214 14.8855H7.10639C6.69217 14.8855 6.35639 14.5497 6.35639 14.1355C6.35639 13.7213 6.69217 13.3855 7.10639 13.3855H12.9214Z" fill="#3162FF"/>
</svg>
