<svg width="24" height="24" viewBox="0 0 24 24" fill="none" xmlns="http://www.w3.org/2000/svg">
<path fill-rule="evenodd" clip-rule="evenodd" d="M17.2412 4.51322C15.6229 3.99411 13.6669 4.40045 12.6769 5.90204C12.5414 6.10761 12.3136 6.23357 12.0674 6.23903C11.8213 6.2445 11.5881 6.12879 11.4436 5.92944C10.3648 4.44148 8.43956 4.00038 6.85112 4.51297L6.85057 4.51315C3.86206 5.47505 2.64144 9.11164 3.63592 12.2171C4.43565 14.7059 6.18475 16.6051 7.96258 17.891C8.8486 18.5319 9.72769 19.0098 10.4726 19.3251C11.2422 19.6508 11.7964 19.7722 12.0508 19.7722C12.3032 19.7722 12.8593 19.6484 13.6345 19.3173C14.3841 18.9972 15.2686 18.5133 16.1582 17.8683C17.9444 16.5731 19.6897 14.6747 20.4613 12.2212L20.4625 12.2176C21.4558 9.11343 20.2298 5.47561 17.2412 4.51322ZM12.0299 4.32661C13.5585 2.77279 15.8831 2.50209 17.6999 3.08508L17.7006 3.08531C21.7432 4.38683 23.0413 9.07755 21.8917 12.673C20.993 15.5286 18.9902 17.6676 17.0387 19.0827C16.0591 19.7929 15.077 20.3323 14.2237 20.6968C13.396 21.0503 12.6129 21.2722 12.0508 21.2722C11.4912 21.2722 10.713 21.0557 9.88797 20.7065C9.03826 20.3469 8.06047 19.8131 7.08349 19.1064C5.13539 17.6974 3.13405 15.5587 2.20774 12.6756L2.20753 12.675C1.05624 9.08057 2.34558 4.3875 6.3908 3.08535M12.0299 4.32661C10.4809 2.83813 8.23439 2.49063 6.391 3.08529L12.0299 4.32661Z" fill="#070721"/>
<path fill-rule="evenodd" clip-rule="evenodd" d="M15.0424 7.48732C15.0847 7.07527 15.4531 6.77556 15.8651 6.81789C16.6576 6.89931 17.3375 7.26256 17.8047 7.85339C18.2671 8.43809 18.4824 9.19508 18.455 10.0111C18.4411 10.4251 18.0943 10.7494 17.6803 10.7355C17.2663 10.7216 16.942 10.3748 16.9559 9.96081C16.9735 9.43584 16.8338 9.04384 16.6282 8.78379C16.4274 8.52986 16.1263 8.35262 15.7118 8.31004C15.2998 8.2677 15 7.89936 15.0424 7.48732Z" fill="#070721"/>
</svg>
